# xmcd
#
# Track frame offsets:
#	150
#	13334
#	26185
#	39067
#	50278
#	64371
#	80343
#	92647
#	106172
#	116990
#	129195
#	141529
#	151454
#	162783
#	175846
#	187921
#	200464
#	209877
#	224884
#	236684
#	248580
#	260745
#	270272
#	282198
#	296643
#
# Disc length: 4127 seconds
#
# Revision: 0
# Processed by: cddbd v1.5.2PL0 Copyright (c) Steve Scherf et al.
# Submitted via: audiograbber 1.83.01
#
DISCID=79101d19
DTITLE=Various Artist - Our Generation MOD classics #2
DYEAR=2015
DGENRE=R&B
TTITLE0=Booker T. and The MG's - Green Onions
TTITLE1=Dobie Gray - The 'In' Crowd
TTITLE2=Bob and Earl - Harlem Shuffle
TTITLE3=John Lee Hooker - Boom Boom
TTITLE4=Howlin' Wolf - Smokestack Lightning
TTITLE5=James Brown - Night Train
TTITLE6=Mel Tormé - Comin' Home Baby
TTITLE7=Marvin Gaye - Ain't That Peculiar
TTITLE8=Aretha Franklin - (Sweet Sweet Baby) Since You've Been Gone
TTITLE9=Otis Redding - I Can't Turn You Loose
TTITLE10=Jr. Walker and The All Stars - (I'm A) Road Runner
TTITLE11=Phil Upchurch Combo - You Can't Sit Down (Part One)
TTITLE12=The Velvelettes - Needle In A Haystack
TTITLE13=Stevie Wonder - Uptight (Everything's Alright)
TTITLE14=The Temptations - The Way You Do The Things You Do
TTITLE15=Smokey Robinson and The Miracles - Going To A Go-Go
TTITLE16=Lulu - Love Loves to Love Love
TTITLE17=Edwin Starr - Twenty Five Miles
TTITLE18=The Mar-Keys - Last Night
TTITLE19=Sandy Nelson - Sandy Nelson
TTITLE20=The Birds - Leaving Here
TTITLE21=Brenda Holloway - When I'm Gone
TTITLE22=Dusty Springfield - I Can't Wait Until I See My Baby's Face
TTITLE23=Shorty Long - Devil With The Blue Dress
TTITLE24=Irma Thomas - Time Is On My Side
EXTD=
EXTT0=
EXTT1=
EXTT2=
EXTT3=
EXTT4=
EXTT5=
EXTT6=
EXTT7=
EXTT8=
EXTT9=
EXTT10=
EXTT11=
EXTT12=
EXTT13=
EXTT14=
EXTT15=
EXTT16=
EXTT17=
EXTT18=
EXTT19=
EXTT20=
EXTT21=
EXTT22=
EXTT23=
EXTT24=
PLAYORDER=
